<svg xmlns="http://www.w3.org/2000/svg" width="140" height="148">
    <g stroke="#bfc6d3" stroke-dasharray="5" stroke-linecap="square">
        <line id="top_left_down" x1="0.8" x2="81" y1="61.6" y2="99"/>
        <line id="top_left_up" x1="49.3" x2="0.8" y1="11.3" y2="61.3"/>
        <line id="top_right_up" x1="49.3" x2="129" y1="11.3" y2="49.3"/>
        <line id="top_right_down" x1="81" x2="129" y1="98" y2="49.3"/>
    </g>
    <text x="35.3" y="81" fill="rgb(66, 76, 228)" font-family="Tahoma" font-size="18" font-weight="600" textLength="50" transform="matrix(0.9,0.5,-0.5,0.9,43.3,-23.1)">
        React
    </text>
    <g stroke="#bfc6d3" stroke-dasharray="5" stroke-linecap="square">
        <line id="bottom_left_down" x1="0.8" x2="79" y1="100" y2="136.5"/>
        <line id="bottom_left_up" x1="49.3" x2="0.8" y1="51.3" y2="99"/>
        <line id="bottom_right_" x1="49.3" x2="129" y1="51.3" y2="87"/>
        <line id="bottom_right_down" x1="81" x2="129" y1="136.5" y2="88"/>
        <line id="down" x1="81" x2="81" y1="99" y2="136.5"/>
        <line id="left" x1="0.8" x2="0.8" y1="61.3" y2="99"/>
        <line id="right" x1="130" x2="130" y1="49" y2="88"/>
        <line id="up" x1="49.3" x2="49.3" y1="11.3" y2="51.3"/>
    </g>
    <circle cx="5.8" cy="56.6" r="5" fill="#bfc6d3"/>
    <circle cx="86" cy="94" r="5" fill="#bfc6d3"/>
    <circle cx="54.3" cy="6.3" r="5" fill="#bfc6d3"/>
    <circle cx="134" cy="44.3" r="5" fill="#bfc6d3"/>
    <circle cx="5.8" cy="105" r="5" fill="#bfc6d3"/>
    <circle cx="86" cy="141.5" r="5" fill="#bfc6d3"/>
    <circle cx="135" cy="93" r="5" fill="#bfc6d3"/>
    <circle cx="54.3" cy="56.3" r="5" fill="#bfc6d3"/>
</svg>
